<mxfile host="Electron" agent="Mozilla/5.0 (Macintosh; Intel Mac OS X 10_15_7) AppleWebKit/537.36 (KHTML, like Gecko) draw.io/24.7.17 Chrome/128.0.6613.36 Electron/32.0.1 Safari/537.36" version="24.7.17">
  <diagram id="C5RBs43oDa-KdzZeNtuy" name="Page-1">
    <mxGraphModel dx="945" dy="2195" grid="1" gridSize="10" guides="1" tooltips="1" connect="1" arrows="1" fold="1" page="1" pageScale="1" pageWidth="827" pageHeight="1169" math="0" shadow="0">
      <root>
        <mxCell id="WIyWlLk6GJQsqaUBKTNV-0" />
        <mxCell id="WIyWlLk6GJQsqaUBKTNV-1" parent="WIyWlLk6GJQsqaUBKTNV-0" />
        <mxCell id="bwYw2KyoKcZdkua50ABW-1" value="파일&lt;div&gt;(UI)&lt;/div&gt;" style="rounded=1;whiteSpace=wrap;html=1;" parent="WIyWlLk6GJQsqaUBKTNV-1" vertex="1">
          <mxGeometry x="460" y="200" width="120" height="110" as="geometry" />
        </mxCell>
        <mxCell id="bwYw2KyoKcZdkua50ABW-2" value="감지&lt;div&gt;FileEventListener&lt;/div&gt;" style="rounded=1;whiteSpace=wrap;html=1;" parent="WIyWlLk6GJQsqaUBKTNV-1" vertex="1">
          <mxGeometry x="220" y="390" width="120" height="60" as="geometry" />
        </mxCell>
        <mxCell id="bwYw2KyoKcZdkua50ABW-3" value="실행" style="rounded=1;whiteSpace=wrap;html=1;" parent="WIyWlLk6GJQsqaUBKTNV-1" vertex="1">
          <mxGeometry x="700" y="390" width="120" height="60" as="geometry" />
        </mxCell>
        <mxCell id="bwYw2KyoKcZdkua50ABW-4" value="생성&lt;div&gt;(IN_CREATE)&lt;/div&gt;" style="rounded=1;whiteSpace=wrap;html=1;" parent="WIyWlLk6GJQsqaUBKTNV-1" vertex="1">
          <mxGeometry x="30" y="490" width="90" height="60" as="geometry" />
        </mxCell>
        <mxCell id="bwYw2KyoKcZdkua50ABW-5" value="삭제&lt;br&gt;&lt;div&gt;(IN_DELETE)&lt;/div&gt;" style="rounded=1;whiteSpace=wrap;html=1;" parent="WIyWlLk6GJQsqaUBKTNV-1" vertex="1">
          <mxGeometry x="130" y="490" width="90" height="60" as="geometry" />
        </mxCell>
        <mxCell id="bwYw2KyoKcZdkua50ABW-6" value="이동(IN)&lt;div&gt;(IN_MOVED_TO)&lt;/div&gt;" style="rounded=1;whiteSpace=wrap;html=1;" parent="WIyWlLk6GJQsqaUBKTNV-1" vertex="1">
          <mxGeometry x="230" y="490" width="100" height="60" as="geometry" />
        </mxCell>
        <mxCell id="bwYw2KyoKcZdkua50ABW-7" style="edgeStyle=orthogonalEdgeStyle;rounded=0;orthogonalLoop=1;jettySize=auto;html=1;exitX=0.5;exitY=1;exitDx=0;exitDy=0;" parent="WIyWlLk6GJQsqaUBKTNV-1" source="bwYw2KyoKcZdkua50ABW-5" target="bwYw2KyoKcZdkua50ABW-5" edge="1">
          <mxGeometry relative="1" as="geometry" />
        </mxCell>
        <mxCell id="bwYw2KyoKcZdkua50ABW-8" value="권한 변경&lt;div&gt;(IN_ATTRIB)&lt;/div&gt;" style="rounded=1;whiteSpace=wrap;html=1;" parent="WIyWlLk6GJQsqaUBKTNV-1" vertex="1">
          <mxGeometry x="450" y="490" width="100" height="60" as="geometry" />
        </mxCell>
        <mxCell id="bwYw2KyoKcZdkua50ABW-14" value="" style="endArrow=classic;startArrow=classic;html=1;rounded=0;exitX=0.5;exitY=0;exitDx=0;exitDy=0;entryX=0.5;entryY=1;entryDx=0;entryDy=0;" parent="WIyWlLk6GJQsqaUBKTNV-1" source="bwYw2KyoKcZdkua50ABW-2" target="bwYw2KyoKcZdkua50ABW-1" edge="1">
          <mxGeometry width="50" height="50" relative="1" as="geometry">
            <mxPoint x="330" y="340" as="sourcePoint" />
            <mxPoint x="380" y="290" as="targetPoint" />
          </mxGeometry>
        </mxCell>
        <mxCell id="bwYw2KyoKcZdkua50ABW-15" value="" style="endArrow=none;html=1;rounded=0;exitX=0.5;exitY=0;exitDx=0;exitDy=0;entryX=0.048;entryY=0.974;entryDx=0;entryDy=0;entryPerimeter=0;" parent="WIyWlLk6GJQsqaUBKTNV-1" source="bwYw2KyoKcZdkua50ABW-4" target="bwYw2KyoKcZdkua50ABW-2" edge="1">
          <mxGeometry width="50" height="50" relative="1" as="geometry">
            <mxPoint x="330" y="410" as="sourcePoint" />
            <mxPoint x="170" y="450" as="targetPoint" />
          </mxGeometry>
        </mxCell>
        <mxCell id="bwYw2KyoKcZdkua50ABW-16" value="" style="endArrow=none;html=1;rounded=0;exitX=0.5;exitY=0;exitDx=0;exitDy=0;entryX=0.5;entryY=1;entryDx=0;entryDy=0;" parent="WIyWlLk6GJQsqaUBKTNV-1" source="bwYw2KyoKcZdkua50ABW-6" target="bwYw2KyoKcZdkua50ABW-2" edge="1">
          <mxGeometry width="50" height="50" relative="1" as="geometry">
            <mxPoint x="85" y="500" as="sourcePoint" />
            <mxPoint x="315" y="450" as="targetPoint" />
          </mxGeometry>
        </mxCell>
        <mxCell id="bwYw2KyoKcZdkua50ABW-17" value="" style="endArrow=none;html=1;rounded=0;exitX=0.5;exitY=0;exitDx=0;exitDy=0;entryX=0.25;entryY=1;entryDx=0;entryDy=0;" parent="WIyWlLk6GJQsqaUBKTNV-1" source="bwYw2KyoKcZdkua50ABW-5" target="bwYw2KyoKcZdkua50ABW-2" edge="1">
          <mxGeometry width="50" height="50" relative="1" as="geometry">
            <mxPoint x="95" y="510" as="sourcePoint" />
            <mxPoint x="190" y="470" as="targetPoint" />
          </mxGeometry>
        </mxCell>
        <mxCell id="bwYw2KyoKcZdkua50ABW-18" value="" style="endArrow=none;html=1;rounded=0;exitX=0.5;exitY=0;exitDx=0;exitDy=0;entryX=0.968;entryY=1.008;entryDx=0;entryDy=0;entryPerimeter=0;" parent="WIyWlLk6GJQsqaUBKTNV-1" source="bwYw2KyoKcZdkua50ABW-8" target="bwYw2KyoKcZdkua50ABW-2" edge="1">
          <mxGeometry width="50" height="50" relative="1" as="geometry">
            <mxPoint x="105" y="520" as="sourcePoint" />
            <mxPoint x="200" y="480" as="targetPoint" />
          </mxGeometry>
        </mxCell>
        <mxCell id="bwYw2KyoKcZdkua50ABW-20" value="실행&lt;div&gt;Execute&lt;/div&gt;" style="rounded=1;whiteSpace=wrap;html=1;" parent="WIyWlLk6GJQsqaUBKTNV-1" vertex="1">
          <mxGeometry x="710" y="490" width="100" height="60" as="geometry" />
        </mxCell>
        <mxCell id="bwYw2KyoKcZdkua50ABW-21" value="&lt;div&gt;로그 작성&lt;/div&gt;&lt;div&gt;LogWriter&lt;/div&gt;" style="rounded=1;whiteSpace=wrap;html=1;" parent="WIyWlLk6GJQsqaUBKTNV-1" vertex="1">
          <mxGeometry x="600" y="490" width="100" height="60" as="geometry" />
        </mxCell>
        <mxCell id="bwYw2KyoKcZdkua50ABW-22" value="" style="endArrow=none;html=1;rounded=0;exitX=0.5;exitY=0;exitDx=0;exitDy=0;entryX=0.25;entryY=1;entryDx=0;entryDy=0;" parent="WIyWlLk6GJQsqaUBKTNV-1" source="bwYw2KyoKcZdkua50ABW-21" target="bwYw2KyoKcZdkua50ABW-3" edge="1">
          <mxGeometry width="50" height="50" relative="1" as="geometry">
            <mxPoint x="440" y="410" as="sourcePoint" />
            <mxPoint x="490" y="360" as="targetPoint" />
          </mxGeometry>
        </mxCell>
        <mxCell id="bwYw2KyoKcZdkua50ABW-24" value="권한 변경&lt;div&gt;Change_Attr&lt;/div&gt;" style="rounded=1;whiteSpace=wrap;html=1;" parent="WIyWlLk6GJQsqaUBKTNV-1" vertex="1">
          <mxGeometry x="820" y="490" width="100" height="60" as="geometry" />
        </mxCell>
        <mxCell id="bwYw2KyoKcZdkua50ABW-25" value="" style="endArrow=none;html=1;rounded=0;exitX=0.5;exitY=0;exitDx=0;exitDy=0;entryX=0.5;entryY=1;entryDx=0;entryDy=0;" parent="WIyWlLk6GJQsqaUBKTNV-1" source="bwYw2KyoKcZdkua50ABW-20" target="bwYw2KyoKcZdkua50ABW-3" edge="1">
          <mxGeometry width="50" height="50" relative="1" as="geometry">
            <mxPoint x="660" y="500" as="sourcePoint" />
            <mxPoint x="740" y="460" as="targetPoint" />
          </mxGeometry>
        </mxCell>
        <mxCell id="bwYw2KyoKcZdkua50ABW-26" value="" style="endArrow=none;html=1;rounded=0;exitX=0.5;exitY=0;exitDx=0;exitDy=0;entryX=0.75;entryY=1;entryDx=0;entryDy=0;" parent="WIyWlLk6GJQsqaUBKTNV-1" source="bwYw2KyoKcZdkua50ABW-24" target="bwYw2KyoKcZdkua50ABW-3" edge="1">
          <mxGeometry width="50" height="50" relative="1" as="geometry">
            <mxPoint x="770" y="500" as="sourcePoint" />
            <mxPoint x="770" y="460" as="targetPoint" />
          </mxGeometry>
        </mxCell>
        <mxCell id="bwYw2KyoKcZdkua50ABW-27" value="" style="endArrow=classic;html=1;rounded=0;entryX=0.5;entryY=0;entryDx=0;entryDy=0;exitX=0.5;exitY=1;exitDx=0;exitDy=0;" parent="WIyWlLk6GJQsqaUBKTNV-1" source="bwYw2KyoKcZdkua50ABW-1" target="bwYw2KyoKcZdkua50ABW-3" edge="1">
          <mxGeometry width="50" height="50" relative="1" as="geometry">
            <mxPoint x="330" y="410" as="sourcePoint" />
            <mxPoint x="380" y="360" as="targetPoint" />
          </mxGeometry>
        </mxCell>
        <mxCell id="bwYw2KyoKcZdkua50ABW-28" value="SIGNAL" style="text;html=1;align=center;verticalAlign=middle;whiteSpace=wrap;rounded=0;" parent="WIyWlLk6GJQsqaUBKTNV-1" vertex="1">
          <mxGeometry x="340" y="320" width="60" height="30" as="geometry" />
        </mxCell>
        <mxCell id="bwYw2KyoKcZdkua50ABW-31" value="&lt;font style=&quot;font-size: 8px;&quot;&gt;(dirName, IN_CREATE)&lt;/font&gt;" style="text;html=1;align=center;verticalAlign=middle;whiteSpace=wrap;rounded=0;" parent="WIyWlLk6GJQsqaUBKTNV-1" vertex="1">
          <mxGeometry x="25" y="550" width="100" height="15" as="geometry" />
        </mxCell>
        <mxCell id="bwYw2KyoKcZdkua50ABW-33" value="&lt;font style=&quot;font-size: 8px;&quot;&gt;(name, IN_DELETE)&lt;/font&gt;" style="text;html=1;align=center;verticalAlign=middle;whiteSpace=wrap;rounded=0;" parent="WIyWlLk6GJQsqaUBKTNV-1" vertex="1">
          <mxGeometry x="125" y="550" width="100" height="15" as="geometry" />
        </mxCell>
        <mxCell id="bwYw2KyoKcZdkua50ABW-35" value="&lt;font style=&quot;font-size: 8px;&quot;&gt;(dirName, IN_MOVED_TO)&lt;/font&gt;" style="text;html=1;align=center;verticalAlign=middle;whiteSpace=wrap;rounded=0;" parent="WIyWlLk6GJQsqaUBKTNV-1" vertex="1">
          <mxGeometry x="230" y="550" width="100" height="15" as="geometry" />
        </mxCell>
        <mxCell id="bwYw2KyoKcZdkua50ABW-36" value="&lt;font style=&quot;font-size: 8px;&quot;&gt;(name, IN_ATTRIB)&lt;/font&gt;" style="text;html=1;align=center;verticalAlign=middle;whiteSpace=wrap;rounded=0;" parent="WIyWlLk6GJQsqaUBKTNV-1" vertex="1">
          <mxGeometry x="450" y="550" width="100" height="15" as="geometry" />
        </mxCell>
        <mxCell id="bwYw2KyoKcZdkua50ABW-37" value="&lt;font&gt;이동(OUT)&lt;/font&gt;&lt;div&gt;&lt;font style=&quot;font-size: 10px;&quot;&gt;(IN_MOVED_FROM)&lt;/font&gt;&lt;/div&gt;" style="rounded=1;whiteSpace=wrap;html=1;" parent="WIyWlLk6GJQsqaUBKTNV-1" vertex="1">
          <mxGeometry x="340" y="490" width="100" height="60" as="geometry" />
        </mxCell>
        <mxCell id="bwYw2KyoKcZdkua50ABW-38" value="" style="endArrow=none;html=1;rounded=0;exitX=0.5;exitY=0;exitDx=0;exitDy=0;entryX=0.75;entryY=1;entryDx=0;entryDy=0;" parent="WIyWlLk6GJQsqaUBKTNV-1" source="bwYw2KyoKcZdkua50ABW-37" target="bwYw2KyoKcZdkua50ABW-2" edge="1">
          <mxGeometry width="50" height="50" relative="1" as="geometry">
            <mxPoint x="290" y="500" as="sourcePoint" />
            <mxPoint x="290" y="460" as="targetPoint" />
          </mxGeometry>
        </mxCell>
        <mxCell id="bwYw2KyoKcZdkua50ABW-39" value="&lt;font style=&quot;font-size: 7px;&quot;&gt;(dirName, IN_MOVED_FROM)&lt;/font&gt;" style="text;html=1;align=center;verticalAlign=middle;whiteSpace=wrap;rounded=0;" parent="WIyWlLk6GJQsqaUBKTNV-1" vertex="1">
          <mxGeometry x="340" y="550" width="100" height="15" as="geometry" />
        </mxCell>
        <mxCell id="bwYw2KyoKcZdkua50ABW-40" value="&lt;font style=&quot;font-size: 8px;&quot;&gt;(name, EVENT)&lt;/font&gt;" style="text;html=1;align=center;verticalAlign=middle;whiteSpace=wrap;rounded=0;" parent="WIyWlLk6GJQsqaUBKTNV-1" vertex="1">
          <mxGeometry x="600" y="550" width="100" height="15" as="geometry" />
        </mxCell>
        <mxCell id="bwYw2KyoKcZdkua50ABW-41" value="&lt;font style=&quot;font-size: 8px;&quot;&gt;(filePath, Parameter(s))&lt;/font&gt;" style="text;html=1;align=center;verticalAlign=middle;whiteSpace=wrap;rounded=0;" parent="WIyWlLk6GJQsqaUBKTNV-1" vertex="1">
          <mxGeometry x="710" y="550" width="100" height="15" as="geometry" />
        </mxCell>
        <mxCell id="bwYw2KyoKcZdkua50ABW-42" value="&lt;font style=&quot;font-size: 8px;&quot;&gt;(filePath, attribute)&lt;/font&gt;" style="text;html=1;align=center;verticalAlign=middle;whiteSpace=wrap;rounded=0;" parent="WIyWlLk6GJQsqaUBKTNV-1" vertex="1">
          <mxGeometry x="820" y="550" width="100" height="15" as="geometry" />
        </mxCell>
      </root>
    </mxGraphModel>
  </diagram>
</mxfile>
